<svg xmlns="http://www.w3.org/2000/svg" id="Layer_1" data-name="Layer 1" viewBox="0 0 169.64 70"><defs><style>.cls-1{fill:#0364b8}.cls-3{fill:#28a8ea}.cls-4{fill:#0078d4;fill-rule:evenodd}.cls-10{fill-opacity:.1}</style></defs><path d="M161.13 0h-43a3.52 3.52 0 0 0-3.51 3.51v4L138.86 15l25.78-7.5v-4a3.53 3.53 0 0 0-3.51-3.5z" class="cls-1"/><path fill="#0a2767" d="M168.76 38.51a28.15 28.15 0 0 0 .88-3.51 1.67 1.67 0 0 0-.83-1.44L141.67 18.1a3.35 3.35 0 0 0-.36-.21 3.77 3.77 0 0 0-3.34 0 3.35 3.35 0 0 0-.36.21l-27.09 15.44a1.67 1.67 0 0 0-.83 1.44 28.15 28.15 0 0 0 .88 3.51l28.73 21z"/><path d="M149.64 7.5h-17.5l-5 7.5 5 7.5 17.5 15h15v-15z" class="cls-3"/><path d="M114.64 7.5h17.5v15h-17.5z" class="cls-4"/><path fill="#50d9ff" fill-rule="evenodd" d="M149.64 7.5h15v15h-15z"/><path d="M149.64 37.5l-17.5-15h-17.5v15l17.5 15 27.08 4.42z" class="cls-1"/><path d="M132.14 22.5h17.5v15h-17.5z" class="cls-4"/><path fill="#064a8c" fill-rule="evenodd" d="M114.64 37.5h17.5v15h-17.5z"/><path d="M149.64 37.5h15v15h-15z" class="cls-4"/><path fill="#0a2767" fill-opacity=".5" d="M140.12 58l-29.49-21.5 1.24-2.17 27.27 15.57a1.28 1.28 0 0 0 1.05 0l27.33-15.6 1.24 2.17z"/><path fill="#1490df" d="M168.81 36.44L141.67 51.9a3.74 3.74 0 0 1-3.65.23l9.44 12.65 20.63 4.49a3.75 3.75 0 0 0 1.55-3V35a1.65 1.65 0 0 1-.83 1.44z"/><path fill-opacity=".05" d="M169.64 66.25v-1.84l-25-14.23-3 1.72a3.77 3.77 0 0 1-3.65.23l9.44 12.65 20.63 4.49a3.74 3.74 0 0 0 1.55-3z"/><path d="M169.51 67.21l-27.35-15.59-.49.28a3.77 3.77 0 0 1-3.65.23l9.44 12.65 20.63 4.49a3.76 3.76 0 0 0 1.43-2.08z" class="cls-10"/><path d="M110.51 36.48l-.08-.05a1.63 1.63 0 0 1-.77-1.4v31.23a3.76 3.76 0 0 0 3.72 3.74h52.51a3.58 3.58 0 0 0 .92-.13 1.39 1.39 0 0 0 .45-.14.34.34 0 0 0 .15-.06 2.52 2.52 0 0 0 .58-.32l.1-.08z" class="cls-3"/><path d="M134.64 56.67V15.84a3.37 3.37 0 0 0-3.33-3.34h-16.59v18.64l-4.21 2.4a1.68 1.68 0 0 0-.83 1.44V60h21.67a3.37 3.37 0 0 0 3.29-3.33z" class="cls-10"/><path fill-opacity=".2" d="M132.14 59.17V18.33a3.37 3.37 0 0 0-3.33-3.33h-14.09v16.14l-4.21 2.4a1.68 1.68 0 0 0-.83 1.44v27.53h19.17a3.37 3.37 0 0 0 3.29-3.34zm0-5V18.33a3.37 3.37 0 0 0-3.33-3.33h-14.09v16.14l-4.21 2.4a1.68 1.68 0 0 0-.83 1.44v22.53h19.17a3.37 3.37 0 0 0 3.29-3.34zm-2.5 0V18.33a3.37 3.37 0 0 0-3.33-3.33h-11.59v16.14l-4.21 2.4a1.68 1.68 0 0 0-.83 1.44v22.53h16.67a3.37 3.37 0 0 0 3.29-3.34z"/><path fill="#0078d4" d="M93 15h33.3a3.35 3.35 0 0 1 3.34 3.33v33.34A3.36 3.36 0 0 1 126.3 55H93a3.35 3.35 0 0 1-3.33-3.33V18.33A3.34 3.34 0 0 1 93 15z"/><path fill="#fff" d="M99.31 28.67a10.41 10.41 0 0 1 4.1-4.54 12.42 12.42 0 0 1 6.53-1.63 11.5 11.5 0 0 1 6 1.55 10.44 10.44 0 0 1 4 4.33 14.07 14.07 0 0 1 1.4 6.37 14.78 14.78 0 0 1-1.45 6.67 10.55 10.55 0 0 1-4.11 4.49 12 12 0 0 1-6.26 1.59 11.8 11.8 0 0 1-6.17-1.57 10.53 10.53 0 0 1-4-4.34 13.7 13.7 0 0 1-1.41-6.3 15.15 15.15 0 0 1 1.39-6.62zm4.37 10.64a6.74 6.74 0 0 0 2.31 3 6 6 0 0 0 3.61 1.09 6.1 6.1 0 0 0 6.09-4.12 11.36 11.36 0 0 0 .72-4.16 12.54 12.54 0 0 0-.67-4.21 6.68 6.68 0 0 0-2.17-3.11 6 6 0 0 0-3.82-1.18 6.25 6.25 0 0 0-3.69 1.1 6.92 6.92 0 0 0-2.36 3 12 12 0 0 0 0 8.59z"/><path fill="#f25022" d="M0 0h33.26v33.26H0z"/><path fill="#7fba00" d="M36.74 0H70v33.26H36.74z"/><path fill="#00a4ef" d="M0 36.74h33.26V70H0z"/><path fill="#ffb900" d="M36.74 36.74H70V70H36.74z"/></svg>