<svg xmlns="http://www.w3.org/2000/svg" width="111.855" height="111.855" viewBox="0 0 111.855 111.855"><defs><style>.a-arrow{fill:#b6b6b6}</style></defs><path d="M25.707 105.715a4.667 4.667 0 0 1-6.78-2.858c-1.798-9.547-3.017-18.968-4.071-28.62-.356-3.251 4.535-3.545 5.438-.7a491.283 491.283 0 0 1 3.437 11.271 102.86 102.86 0 0 1 4.129-13.847 105.942 105.942 0 0 1 14.986-27.748 95.215 95.215 0 0 1 23.952-22.184c6.906-4.48 19.64-12.993 28.24-10.437a2.2 2.2 0 0 1 .984 3.636c-2.927 3.445-7.888 4.502-11.911 6.35a93.085 93.085 0 0 0-13.314 7.494 89.208 89.208 0 0 0-21.868 20.915 81.91 81.91 0 0 0-12.314 24.27 90.064 90.064 0 0 0-2.91 15.993l1.37-.916c4.118-2.754 7.572-5.722 12.568-6.317 2.79-.33 4.35 3.232 3.134 5.383-2.433 4.305-7.024 6.44-11.068 9.095-2.693 1.772-13.408 8.83-14.002 9.22z" class="a-arrow"/></svg>