<svg xmlns="http://www.w3.org/2000/svg" width="31.367" height="32" viewBox="0 0 31.367 32"><defs><style>.a-google{fill:#4285f4}.b-google{fill:#34a853}.c-google{fill:#fbbc04}.d-google{fill:#ea4335}</style></defs><path d="M31.367 16.368a18.816 18.816 0 0 0-.276-3.251H16.003v6.161h8.642a7.406 7.406 0 0 1-3.2 4.862v4h5.158a15.626 15.626 0 0 0 4.768-11.77z" class="a-google"/><path d="M16.003 32.001a15.316 15.316 0 0 0 10.6-3.864l-5.156-4a9.7 9.7 0 0 1-14.425-5.071H1.703v4.121a16 16 0 0 0 14.3 8.814z" class="b-google"/><path d="M7.017 19.066a9.583 9.583 0 0 1 0-6.126V8.819H1.703a16.013 16.013 0 0 0 0 14.368z" class="c-google"/><path d="M16.003 6.333a8.694 8.694 0 0 1 6.138 2.4l4.562-4.57a15.377 15.377 0 0 0-10.7-4.162 16 16 0 0 0-14.3 8.818l5.315 4.121a9.57 9.57 0 0 1 8.985-6.607z" class="d-google"/></svg>