<svg xmlns="http://www.w3.org/2000/svg" width="150" height="158.961" viewBox="0 0 150 158.961"><g transform="translate(5.152 11.873)"><circle cx="75" cy="75" r="75" fill="#395360" data-name="Ellipse 23" transform="translate(-5.152 -2.912)"/><g fill="none" stroke="rgba(255,255,255,0.1)" stroke-width="14" transform="translate(1.848 4.088)"><circle cx="68" cy="68" r="68" stroke="none"/><circle cx="68" cy="68" r="61"/></g><g fill="none" stroke="#6aa08b" stroke-dasharray="75 1000" stroke-linecap="round" stroke-width="14" transform="rotate(-68 71.954 68.674)"><circle cx="68" cy="68" r="61"/><animateTransform additive="sum" attributeName="transform" attributeType="xml" dur="0.75s" from="0 68 68" repeatCount="indefinite" to="360 68 68" type="rotate"/></g><path fill="#395360" fill-rule="evenodd" d="M53.431 6.183a35.872 35.872 0 0 0-18.314 23.663 54.9 54.9 0 0 0-7.184 77.03 54.247 54.247 0 0 0 76.64 7.223 54.843 54.843 0 0 0 0-84.251 35.8 35.8 0 0 0-21.69-25.202 7.907 7.907 0 0 0-4.816-6.26 10.71 10.71 0 0 0-20.514-3.84 57.072 57.072 0 0 0-4.122 11.637z" data-name="Path 4"/><path fill="#fbaa6f" d="M56.534 47.743h27.784v32.578H56.534z" data-name="Rectangle 2"/><path fill="#dc7f3c" fill-rule="evenodd" d="M74.756 64.451l-.278-.186a3.318 3.318 0 0 1-.729-4.619 3.28 3.28 0 0 1 4.6-.733 4.71 4.71 0 0 0-3.593 5.538zm-10.373 0a4.2 4.2 0 0 0-.9-3.584 4.417 4.417 0 0 0-2.848-1.885 3.28 3.28 0 0 1 4.6.733 3.318 3.318 0 0 1-.729 4.619 1.369 1.369 0 0 1-.123.117zm16.717-7.4h1.227L79.85 68.267 74.9 83.23h-9.938L57.53 70.757l2.477-7.47c2.477 3.328 4.144 5.4 4.955 6.236 1.25 1.233 6.205 1.233 8.683-1.257A60.876 60.876 0 0 0 81.1 57.051z" data-name="Path 5"/><path fill="#bdcfc8" fill-rule="evenodd" d="M37.41 54.724h12.178V33.781h-9.4a30.233 30.233 0 0 1 17.365-23.27q2.64-11.633 6.275-15.707l.417-.4.255-.233A5.2 5.2 0 0 1 67-6.923a5.4 5.4 0 0 1 4.981 8.778h-.139a3.749 3.749 0 0 1-.695.675 34.6 34.6 0 0 0-3.033 3.653 11.55 11.55 0 0 1 6.946-3.49 3.212 3.212 0 0 1 1.528.372 3.1 3.1 0 0 1 1.178 4.169 2.988 2.988 0 0 1-1.385 1.3 30.191 30.191 0 0 1 23.473 25.6l.278 2.024h-8.868v18.613h11.183l4.144 31.251q-14.656 9.145-36.7 9.145t-36.51-9.168zm35.031 21.85q8.96-14.869 8.96-17.708c0-5.189-7.525-9.448-11.276-9.448S58.85 53.654 58.85 58.866q0 2.838 8.821 17.732a2.866 2.866 0 0 0 2.454 1.326 2.5 2.5 0 0 0 2.315-1.3z" data-name="Path 6"/><path fill="none" d="M58.757 59.541h22.34l-3.725 37.395H62.485z" data-name="Path 7"/><path fill="#809eb0" fill-rule="evenodd" d="M107.032 100.844a46.2 46.2 0 0 1-74.3 0l1.946-14.218a6.169 6.169 0 0 0 2.315.442 6.565 6.565 0 0 0 6.506-5.655v2.839a6.576 6.576 0 1 0 13.151 0v3.77a6.6 6.6 0 0 0 13.174 0 6.576 6.576 0 1 0 13.151 0v-3.653a6.576 6.576 0 1 0 13.151 0V81.53a6.76 6.76 0 0 0 9.03 5.352z" data-name="Path 8"/><path fill="#738e9e" fill-rule="evenodd" d="M34.076 91.141l.6-4.4a6.17 6.17 0 0 0 2.315.442 6.565 6.565 0 0 0 6.506-5.655v2.839a6.576 6.576 0 1 0 13.151 0v3.77a6.6 6.6 0 0 0 13.174 0 6.576 6.576 0 1 0 13.151 0v-3.77a6.576 6.576 0 1 0 13.151 0v-2.836a6.76 6.76 0 0 0 9.03 5.352l.579 4.4a6.584 6.584 0 0 1-8.826-3.046 6.67 6.67 0 0 1-.6-1.934v2.839a6.576 6.576 0 1 1-13.151 0v3.769a6.576 6.576 0 1 1-13.151 0 6.6 6.6 0 0 1-13.174 0v-3.887a6.576 6.576 0 1 1-13.151 0v-2.839a6.563 6.563 0 0 1-6.645 5.771 6.686 6.686 0 0 1-2.964-.7z" data-name="Path 9"/><path fill="#86a196" fill-rule="evenodd" d="M102.332 39.343c-2.315-6.679-6.946-10.914-10.928-10.491-5.094.535-6.344 8.749-5.3 18.616s3.935 17.584 9.027 17.053 9.261-9.052 8.52-18.616c-.185 2.862-1.2 5.306-3.218 5.468-2.593.233-3.334-2.769-3.681-6.562s-.324-6.981 2.315-7.167a3.493 3.493 0 0 1 3.265 1.699z" data-name="Path 10"/><path fill="#fff" fill-rule="evenodd" d="M100.526 37.853c-1.459-2.816-3.473-4.538-5.534-4.3-3.5.349-4.33 5.98-3.635 12.729s2.709 12.054 6.182 11.635c2.57-.279 4.469-3.49 5-7.865a2.685 2.685 0 0 1-2.061 1.326c-2.593.233-3.334-2.769-3.681-6.562s-.324-6.981 2.315-7.167a3.7 3.7 0 0 1 1.414.204z" data-name="Path 11"/><path fill="#86a196" fill-rule="evenodd" d="M37.087 39.343c2.315-6.678 6.946-10.914 10.928-10.495 5.094.535 6.344 8.749 5.3 18.616s-3.935 17.588-9.028 17.057-9.261-9.052-8.52-18.616c.185 2.862 1.181 5.306 3.218 5.468 2.593.233 3.334-2.769 3.658-6.562s.347-6.981-2.315-7.167a3.491 3.491 0 0 0-3.311 1.652z" data-name="Path 12"/><path fill="#fff" fill-rule="evenodd" d="M38.868 37.853c1.459-2.816 3.5-4.538 5.557-4.3 3.473.349 4.33 5.98 3.612 12.729s-2.683 12.048-6.183 11.629c-2.57-.279-4.469-3.49-5-7.865a2.73 2.73 0 0 0 2.084 1.326c2.57.233 3.334-2.769 3.658-6.562s.324-6.981-2.315-7.167a3.9 3.9 0 0 0-1.482.163z" data-name="Path 13"/><path fill="#f4f8ff" fill-rule="evenodd" d="M58.85 53.863a12.385 12.385 0 0 1 0-1.606c0-5.748 2.8-12.286 11.276-12.286s11.275 6.54 11.275 12.286a10.242 10.242 0 0 1-.3 2.327c-1.853-3.141-5.326-5.073-11.114-5.073-5.488.07-9.052 1.676-11.137 4.352z" data-name="Path 14"/><path fill="#86a196" fill-rule="evenodd" d="M76.261 8.556l-7.363-.372 9.1-2.7a3.143 3.143 0 0 1-1.737 3.072zm-8.15-2.374l-3.056 2.327a39.073 39.073 0 0 0 4.631-8.656 15.323 15.323 0 0 0 .741-6.213 5.5 5.5 0 0 1 2.8 5.236 5.67 5.67 0 0 1-1.735 3.514 34.713 34.713 0 0 0-3.381 3.792z" data-name="Path 15"/></g></svg>