<svg xmlns="http://www.w3.org/2000/svg" width="22" height="32" fill="none" viewBox="0 0 22 32"><path fill="#211F9A" d="M19.63 3.044a2.981 2.981 0 0 1 1.544 2.61v20.692a2.981 2.981 0 0 1-1.544 2.61l-4.839 2.667c-1.994 1.1-4.438-.338-4.438-2.61V2.987c0-2.272 2.444-3.71 4.438-2.61l4.839 2.667zM7.864 5.48c.114.21.173.446.173.686v19.65c0 .24-.06.476-.173.687-.715 1.323-2.728.816-2.728-.686V6.166c0-1.503 2.013-2.01 2.728-.686zM2.728 9.39c.114.212.174.448.174.687v11.86c0 .24-.06.476-.174.687C2.013 23.947 0 23.44 0 21.938v-11.86c0-1.503 2.013-2.01 2.728-.687z"/></svg>