<svg xmlns="http://www.w3.org/2000/svg" width="29.796" height="32" viewBox="0 0 29.796 32"><defs><style>.a-sendinblue{fill:#0092ff}</style></defs><path d="M28.603 8a8.537 8.537 0 0 0-5.26-4.063 11.149 11.149 0 0 0-1.417-.252A8.548 8.548 0 0 0 14.872 0a8.441 8.441 0 0 0-7.025 3.717A8.626 8.626 0 0 0 1.138 8a8.847 8.847 0 0 0-.346 8 8.785 8.785 0 0 0 .346 7.969 8.537 8.537 0 0 0 5.26 4.063 7.337 7.337 0 0 0 1.449.252 8.534 8.534 0 0 0 14.11-.031 8.654 8.654 0 0 0 7.024-12.283 8.788 8.788 0 0 0-.378-7.969zm-2.142 1.26a5.848 5.848 0 0 1 .724 3.906 10.306 10.306 0 0 0-1.512-1.1 8.763 8.763 0 0 0-10.268 1.1 5.976 5.976 0 0 1 7.367-6.709 5.772 5.772 0 0 1 3.689 2.803zM14.872 2.835a5.636 5.636 0 0 1 3.62 1.323 8.233 8.233 0 0 0-1.7.756 8.553 8.553 0 0 0-4 9.228 5.881 5.881 0 0 1-3.685-5.449 5.807 5.807 0 0 1 5.765-5.858zM3.343 9.417a6.043 6.043 0 0 1 2.992-2.52 9.046 9.046 0 0 0-.22 1.827 8.571 8.571 0 0 0 6.11 8.126 5.94 5.94 0 0 1-6.709.535 5.763 5.763 0 0 1-2.205-7.968h.031zm-.032 13.292a5.848 5.848 0 0 1-.724-3.906 10.306 10.306 0 0 0 1.512 1.1 8.857 8.857 0 0 0 6.614.882 8.648 8.648 0 0 0 3.654-1.984 5.961 5.961 0 0 1-11.056 3.908zm11.622 6.425a5.636 5.636 0 0 1-3.622-1.323 8.232 8.232 0 0 0 1.7-.756 8.6 8.6 0 0 0 4.031-9.2 5.844 5.844 0 0 1-2.11 11.276zm10.929-6.551a5.959 5.959 0 0 1-2.9 2.52 9.085 9.085 0 0 0 .22-1.858 8.527 8.527 0 0 0-5.918-8.128 5.755 5.755 0 0 1 2.173-1.134 5.688 5.688 0 0 1 4.346.63 5.867 5.867 0 0 1 2.079 7.969z" class="a-sendinblue"/></svg>