<svg xmlns="http://www.w3.org/2000/svg" width="32" height="22.584" viewBox="0 0 32 22.584"><defs><style>.a-smtp{fill:#819eaf;fill-rule:evenodd}</style></defs><path d="M31.158 21.742a2.716 2.716 0 0 1-1.99.842H2.756a2.78 2.78 0 0 1-1.99-.842A2.969 2.969 0 0 1 0 19.713V2.871A2.833 2.833 0 0 1 .8.842 2.716 2.716 0 0 1 2.79 0h26.416a2.78 2.78 0 0 1 1.99.842 2.833 2.833 0 0 1 .8 2.029v16.842a2.868 2.868 0 0 1-.838 2.029zM27.789 2.794l-11.751 9.455L4.249 2.794c-.689-.574-1.3-.651-1.837-.153a1.015 1.015 0 0 0-.306.842 1.243 1.243 0 0 0 .383.689l7.656 7.043-7.351 7.618a.706.706 0 0 0-.077.957.6.6 0 0 0 .459.23.879.879 0 0 0 .536-.153l8.23-6.967L16 16.5l3.981-3.6 8.23 6.967a.879.879 0 0 0 .536.153.7.7 0 0 0 .536-.23c.23-.306.191-.612-.153-.957l-7.273-7.617 7.656-7.043a1.6 1.6 0 0 0 .421-.689.905.905 0 0 0-.344-.842c-.536-.5-1.11-.421-1.8.153z" class="a-smtp"/></svg>