<svg xmlns="http://www.w3.org/2000/svg" width="32" height="23.251" viewBox="0 0 32 23.251"><defs><style>.a-smtpcom{fill:#21b193}</style></defs><path d="M0 0h32v23.19a3.353 3.353 0 0 1-.575.061H.454c-.151 0-.3-.03-.454-.03zm31.061 22.312V1.392L2 22.281a1.52 1.52 0 0 0 .363.061h10.655a1.585 1.585 0 0 0 .817-.3c1.272-.878 2.543-1.816 3.784-2.725l5.6-4 .545.757-8.689 6.237zM.969 1.362v20.526l14.35-10.324zm1.3-.394c.061.091.151.151.212.242l13.26 9.446c.424.3.666.121.969-.091l12.596-9.173c.151-.121.272-.242.484-.424z"/><path d="M2.271.968H29.79c-.212.182-.333.3-.484.424l-12.595 9.173c-.3.242-.545.394-.969.091L2.482 1.21a1.731 1.731 0 0 1-.211-.242z" class="a-smtpcom"/></svg>