<svg xmlns="http://www.w3.org/2000/svg" width="128" height="128" viewBox="0 0 128 128"><defs><style>.a-thumbsdown{fill:#fff;stroke:#d83638;stroke-width:5px}.b-thumbsdown{fill:#d83638}.c-thumbsdown{stroke:none}.d-thumbsdown{fill:none}</style></defs><g class="a-thumbsdown"><circle cx="64" cy="64" r="64" class="c-thumbsdown"/><circle cx="64" cy="64" r="61.5" class="d-thumbsdown"/></g><path d="M82.286 48.143a2.3 2.3 0 0 0 2.286 2.286 2.3 2.3 0 0 0 2.286-2.286 2.3 2.3 0 0 0-2.286-2.286 2.3 2.3 0 0 0-2.286 2.286zM41.143 68.714a4.726 4.726 0 0 0 4.571 4.571h12.572c0 4.179-3.429 7.214-3.429 11.429 0 4.179.821 6.857 5.714 6.857 2.286-2.321 1.108-7.785 4.572-11.428 1-1.036 1.857-2.143 2.75-3.25 1.607-2.071 5.857-8.179 8.679-8.179h1.143V45.857h-1.143c-2 0-5.286-1.286-7.214-1.964-3.929-1.357-8-2.607-12.214-2.607h-4.571c-3.964 0-6.607 1.786-6.607 5.964a12.249 12.249 0 0 0 .179 2 5.319 5.319 0 0 0-2.321 4.5 4.977 4.977 0 0 0 .643 2.464 5.685 5.685 0 0 0-1.893 4.25 6.423 6.423 0 0 0 1.25 3.679c-1.681.036-2.681 3.25-2.681 4.571zm-4.571.036a10.512 10.512 0 0 1 1.75-5.821A9.523 9.523 0 0 1 38 60.464a10.445 10.445 0 0 1 1.357-5.143 11.1 11.1 0 0 1-.107-1.536 10.416 10.416 0 0 1 2.143-6.357v-.179c-.036-6.678 4.643-10.535 11.143-10.535h4c5.5 0 9.964 1.357 15.107 3.143a26.4 26.4 0 0 0 4.928 1.429h10.286a4.557 4.557 0 0 1 4.571 4.571v22.857a4.557 4.557 0 0 1-4.571 4.571h-9.786c-1.393.929-3.821 4.143-4.893 5.536a58.287 58.287 0 0 1-3.821 4.536c-2.107 2.321-1 7.964-4.571 11.464a4.663 4.663 0 0 1-3.214 1.321c-3.714 0-7.286-1.321-9.036-4.786a13.717 13.717 0 0 1-1.25-6.643A15.228 15.228 0 0 1 52 77.857h-6.286a9.271 9.271 0 0 1-9.143-9.107z" class="b-thumbsdown"/></svg>