<svg xmlns="http://www.w3.org/2000/svg" width="415" height="228" viewBox="0 0 415 228"><defs><radialGradient id="a" cx=".5" cy=".5" r=".5" gradientUnits="objectBoundingBox"><stop offset="0" stop-color="#ddd"/><stop offset="1" stop-color="#fff"/></radialGradient></defs><g fill="#fff" stroke="#777"><g stroke-width="3" data-name="Ellipse 9" opacity=".15" transform="translate(82 93)"><circle cx="8" cy="8" r="8" stroke="none"/><circle cx="8" cy="8" r="6.5" fill="none"/><animate attributeName="opacity" dur="1s" repeatCount="indefinite" values="0;0.25;0"/></g><g stroke-width="2" data-name="Ellipse 13" opacity=".3" transform="translate(403 133)"><circle cx="6" cy="6" r="6" stroke="none"/><circle cx="6" cy="6" r="5" fill="none"/><animate attributeName="opacity" dur="1.3s" repeatCount="indefinite" values="0;0.6;0"/></g><g stroke-width="2" data-name="Ellipse 14" opacity=".15" transform="translate(100 6)"><circle cx="6" cy="6" r="6" stroke="none"/><circle cx="6" cy="6" r="5" fill="none"/><animate attributeName="opacity" dur="1.6s" repeatCount="indefinite" values="0;0.25;0"/></g><g stroke-width="3" data-name="Ellipse 10" opacity=".3" transform="translate(353 26)"><circle cx="8" cy="8" r="8" stroke="none"/><circle cx="8" cy="8" r="6.5" fill="none"/><animate attributeName="opacity" dur="1.9s" repeatCount="indefinite" values="0;0.6;0"/></g><g data-name="Ellipse 11" opacity=".15" transform="translate(332 184)"><circle cx="4" cy="4" r="4" stroke="none"/><circle cx="4" cy="4" r="3.5" fill="none"/><animate attributeName="opacity" dur="2.2s" repeatCount="indefinite" values="0;0.25;0"/></g><g data-name="Ellipse 16" opacity=".3" transform="translate(0 83)"><circle cx="4" cy="4" r="4" stroke="none"/><circle cx="4" cy="4" r="3.5" fill="none"/><animate attributeName="opacity" dur="2.5s" repeatCount="indefinite" values="0;0.6;0"/></g><g data-name="Ellipse 15" opacity=".15" transform="translate(227)"><circle cx="4" cy="4" r="4" stroke="none"/><circle cx="4" cy="4" r="3.5" fill="none"/><animate attributeName="opacity" dur="2.8s" repeatCount="indefinite" values="0;0.25;0"/></g><g data-name="Ellipse 12" opacity=".3" transform="translate(29 18)"><circle cx="4" cy="4" r="4" stroke="none"/><circle cx="4" cy="4" r="3.5" fill="none"/><animate attributeName="opacity" dur="3.1s" repeatCount="indefinite" values="0;0.6;0"/></g></g><g fill="#777"><path d="M343.93 100.391l-4.236-1.824-.896-4.525a1 1 0 0 0-1.733-.464l-3.046 3.467-4.579-.539a1 1 0 0 0-.976 1.505l2.354 3.964-1.932 4.19a1 1 0 0 0 1.128 1.393l4.501-1.016 3.39 3.132a1 1 0 0 0 1.673-.642l.423-4.595 4.021-2.254a1 1 0 0 0-.092-1.792zm-5.35 3.122l-.403 4.37-3.223-2.976-4.28.964 1.835-3.986-2.246-3.77 4.36.516 2.899-3.303.858 4.307 4.03 1.738z" data-name="Path 510" opacity=".3"><animate attributeName="opacity" dur="1.5s" repeatCount="indefinite" values="0;0.6;0"/></path><path d="M185.56 27.505l-4.58.54-3.04-3.47a1 1 0 0 0-1.733.465l-.902 4.526-4.235 1.824a1 1 0 0 0-.092 1.792l4.021 2.254.423 4.595a1 1 0 0 0 1.674.642l3.389-3.132 4.501 1.016a1 1 0 0 0 1.128-1.393l-1.932-4.19 2.354-3.964a1 1 0 0 0-.976-1.505zm-3.071 5.38l1.838 3.985-4.28-.964-3.224 2.976-.405-4.37-3.83-2.14 4.033-1.735.857-4.31 2.898 3.3 4.36-.512z" data-name="Path 509" opacity=".5"><animate attributeName="opacity" dur="1.7s" repeatCount="indefinite" values="0;0.4;0"/></path><path d="M70.56 51.505l-4.58.54-3.04-3.47a1 1 0 0 0-1.733.465l-.902 4.526-4.235 1.824a1 1 0 0 0-.092 1.792l4.021 2.254.423 4.595a1 1 0 0 0 1.674.642l3.389-3.132 4.501 1.016a1 1 0 0 0 1.128-1.393l-1.932-4.19 2.354-3.964a1 1 0 0 0-.976-1.505zm-3.071 5.38l1.838 3.985-4.28-.964-3.224 2.976-.405-4.37-3.83-2.14 4.033-1.735.857-4.31 2.898 3.3 4.36-.512z" data-name="Path 508" opacity=".1"><animate attributeName="opacity" dur="1.9s" repeatCount="indefinite" values="0;0.25;0"/></path><path d="M30.684 144.364l-2.864.337-1.9-2.166a.626.626 0 0 0-1.084.29l-.563 2.827-2.648 1.141a.625.625 0 0 0-.058 1.12l2.515 1.408.264 2.872a.625.625 0 0 0 1.046.401l2.119-1.957 2.813.635a.625.625 0 0 0 .705-.87l-1.207-2.62 1.472-2.478a.625.625 0 0 0-.61-.94zm-1.92 3.362l1.147 2.488-2.675-.6-2.015 1.861-.252-2.728-2.394-1.343 2.52-1.085.536-2.692 1.811 2.063 2.725-.322z" data-name="Path 507" opacity=".5"><animate attributeName="opacity" dur="2.1s" repeatCount="indefinite" values="0;0.4;0"/></path><path d="M292.41 17.793l-2.648-1.14-.562-2.827a.626.626 0 0 0-1.083-.29l-1.902 2.165-2.864-.337a.625.625 0 0 0-.61.94l1.472 2.478-1.207 2.62a.625.625 0 0 0 .705.87l2.813-.635 2.12 1.957a.625.625 0 0 0 1.045-.4l.264-2.873 2.515-1.409a.625.625 0 0 0-.058-1.119zm-3.343 1.951l-.253 2.728-2.015-1.858-2.676.603 1.146-2.488-1.401-2.36 2.725.32 1.81-2.062.537 2.692 2.52 1.085z" data-name="Path 506" opacity=".3"><animate attributeName="opacity" dur="2.3s" repeatCount="indefinite" values="0;0.6;0"/></path></g><g transform="translate(-492 -434)"><ellipse cx="80" cy="6" fill="url(#a)" data-name="shadow" rx="80" ry="6" transform="translate(620 650)"/><animate attributeName="opacity" dur="1.5" repeatCount="indefinite" values="0.7;1;0.7"/></g><g transform="translate(-492 -434)"><path fill="#e27730" d="M765 499.703H635a15 15 0 0 0-15 15v90a15 15 0 0 0 15 15h130a15 15 0 0 0 15-15v-90a15 15 0 0 0-15-15zm-130 10h130a5.015 5.015 0 0 1 5 5v12.938c-6.844 5.781-16.625 13.75-47.062 37.906-5.282 4.187-15.688 14.281-22.938 14.156-7.25.125-17.688-9.969-22.937-14.156-30.438-24.156-40.219-32.125-47.063-37.906v-12.938a5.015 5.015 0 0 1 5-5zm130 100H635a5.015 5.015 0 0 1-5-5v-64.062c7.125 5.844 18.375 14.875 40.844 32.719 6.406 5.124 17.719 16.406 29.156 16.343 11.375.094 22.594-11.094 29.156-16.344 22.469-17.844 33.719-26.875 40.844-32.719v64.063a5.015 5.015 0 0 1-5 5z"/><animateMotion dur="1.5" path="M 0 0 V 10 Z" repeatCount="indefinite"/></g></svg>