<svg xmlns="http://www.w3.org/2000/svg" width="32" height="11.035" viewBox="0 0 32 11.035"><defs><style>.a-zoho{fill:#dc7e28}.b-zoho{fill:url(#a)}.c-zoho{fill:#fdd600}.d-zoho{fill:#90c7ea}.e-zoho{fill:url(#b)}.f-zoho{fill:#0b98d5}.g-zoho{fill:url(#c)}.h-zoho{fill:#95cea0}.i-zoho{fill:#69bf6d}.j-zoho{fill:url(#d)}.k-zoho{fill:#761216}.l-zoho{fill:#fff}.m-zoho{fill:#ec473f}</style><linearGradient id="a" x1="-.01" x2=".981" y1=".572" y2="-.449" gradientUnits="objectBoundingBox"><stop offset=".006" stop-color="#f8c51b"/><stop offset="1" stop-color="#e78f24"/></linearGradient><linearGradient id="b" x1=".032" x2=".956" y1=".459" y2="-.29" gradientUnits="objectBoundingBox"><stop offset=".006" stop-color="#1f8aca"/><stop offset="1" stop-color="#01659e"/></linearGradient><linearGradient id="c" x1=".5" x2=".5" y1=".498" y2="-.2" gradientUnits="objectBoundingBox"><stop offset="0" stop-color="#269f49"/><stop offset="1" stop-color="#008a54"/></linearGradient><linearGradient id="d" x1=".437" x2=".575" y1=".5" y2="-.349" gradientUnits="objectBoundingBox"><stop offset="0" stop-color="#d81f32"/><stop offset="1" stop-color="#bb2637"/></linearGradient></defs><path d="M32 2.356v7.591l-1.03 1.03V3.545z" class="a-zoho"/><path d="M24.033 3.545h6.943v7.432h-6.943z" class="b-zoho"/><path d="M25.12 2.361l-1.087 1.184h6.937L32 2.356z" class="c-zoho"/><path d="M16.521 2.686l6.829-.95-.575 1.639-6.732.916z" class="d-zoho"/><path d="M22.775 3.374l.95 6.658-6.732.945-.95-6.687z" class="e-zoho"/><path d="M22.775 3.374l.95 6.658.512-1.44-.882-6.818-.006-.04" class="f-zoho"/><path d="M10.756 2.117L16.8 4.848l-2.726 6.186L8.03 8.308z" class="g-zoho"/><path d="M10.13 0l.626 2.117L16.8 4.848l-.506-2.026z" class="h-zoho"/><path d="M10.13 0L7.694 5.77l.336 2.538 2.726-6.191z" class="i-zoho"/><path d="M6.755 3.363l1 6.556-6.679 1.047L0 4.399z" class="j-zoho"/><path d="M7.21.978l.99 6.613-.449 2.326-1-6.556z" class="k-zoho"/><path d="M29.911 6.217a2.764 2.764 0 0 0-.609-.928 2.58 2.58 0 0 0-.865-.592 2.708 2.708 0 0 0-1.036-.2 2.766 2.766 0 0 0-1.047.2 2.525 2.525 0 0 0-.865.592 2.643 2.643 0 0 0-.6.922 3.243 3.243 0 0 0 .006 2.254 2.771 2.771 0 0 0 .6.933 2.546 2.546 0 0 0 .854.586 2.837 2.837 0 0 0 2.089 0 2.642 2.642 0 0 0 .871-.586 2.787 2.787 0 0 0 .609-.933 3.05 3.05 0 0 0 .2-1.127 3.166 3.166 0 0 0-.207-1.121zm-1.428 2.45a1.361 1.361 0 0 1-1.087.484 1.344 1.344 0 0 1-1.093-.478 2.006 2.006 0 0 1-.4-1.326 2.065 2.065 0 0 1 .4-1.343 1.47 1.47 0 0 1 2.18 0 2.044 2.044 0 0 1 .4 1.343 1.927 1.927 0 0 1-.4 1.32zm-24.01-1.5zm1.565 1.707a.512.512 0 0 0-.211-.142 1.06 1.06 0 0 0-.324-.046 2.253 2.253 0 0 0-.41.04l-1.764.3a1.586 1.586 0 0 1 .2-.529 7.3 7.3 0 0 1 .591-.88q.137-.179.2-.273c.034-.04.08-.1.142-.182a4.352 4.352 0 0 0 .751-1.3 2.959 2.959 0 0 0 .1-.58 1.491 1.491 0 0 0 .006-.159 2.438 2.438 0 0 0-.034-.41 1.165 1.165 0 0 0-.091-.307.446.446 0 0 0-.154-.182.576.576 0 0 0-.307-.063 2.176 2.176 0 0 0-.393.04l-2.04.351a1.057 1.057 0 0 0-.546.222.443.443 0 0 0-.142.33.627.627 0 0 0 .011.1.46.46 0 0 0 .262.364.733.733 0 0 0 .313.057 2.641 2.641 0 0 0 .273-.023l1.707-.29a.49.49 0 0 1 .006.091.846.846 0 0 1-.057.313 2.378 2.378 0 0 1-.381.6c-.057.068-.142.176-.262.324a8 8 0 0 0-.99 1.428 3.212 3.212 0 0 0-.3.8 2.028 2.028 0 0 0-.046.444 1.685 1.685 0 0 0 .023.3 1.117 1.117 0 0 0 .1.336.421.421 0 0 0 .176.193.674.674 0 0 0 .3.051 4.121 4.121 0 0 0 .689-.074l1.85-.319a1.524 1.524 0 0 0 .689-.245.421.421 0 0 0 .159-.347.7.7 0 0 0-.011-.108.4.4 0 0 0-.085-.227zm8.383-4.428a2.517 2.517 0 0 0-.865-.592 2.6 2.6 0 0 0-1.019-.216h-.017a2.677 2.677 0 0 0-1.024.233 2.847 2.847 0 0 0-.928.649 3.484 3.484 0 0 0-.9 2.145c0 .046-.006.085-.006.131a2.849 2.849 0 0 0 .176 1 2.531 2.531 0 0 0 .546.888 2.627 2.627 0 0 0 .882.6 2.566 2.566 0 0 0 1.013.211h.011a2.518 2.518 0 0 0 1.024-.222 2.913 2.913 0 0 0 .933-.654 3.448 3.448 0 0 0 .911-2.145v-.108a2.918 2.918 0 0 0-.182-1.007 2.6 2.6 0 0 0-.555-.915zm-.66 2.7a2.18 2.18 0 0 1-.9 1.11 1.277 1.277 0 0 1-.615.165 1.412 1.412 0 0 1-.569-.125 1.32 1.32 0 0 1-.8-.876 1.528 1.528 0 0 1-.057-.433 2.48 2.48 0 0 1 .228-.985 2.195 2.195 0 0 1 .911-1.127 1.277 1.277 0 0 1 .615-.165 1.438 1.438 0 0 1 .575.125 1.265 1.265 0 0 1 .791.882 1.718 1.718 0 0 1 .057.427 2.663 2.663 0 0 1-.236.998zm7.871-2.493a.749.749 0 0 0-.216-.467.473.473 0 0 0-.336-.125.618.618 0 0 0-.1.006.53.53 0 0 0-.393.239.67.67 0 0 0-.091.347 1.5 1.5 0 0 0 .011.159l.245 1.73-1.935.285-.245-1.73a.744.744 0 0 0-.211-.461.478.478 0 0 0-.336-.131.489.489 0 0 0-.091.006.559.559 0 0 0-.4.239.62.62 0 0 0-.091.347c0 .051.006.108.011.165l.66 4.507a.725.725 0 0 0 .222.467.51.51 0 0 0 .341.12.856.856 0 0 0 .114-.011.492.492 0 0 0 .376-.239.661.661 0 0 0 .085-.341c0-.051-.006-.108-.011-.165l-.279-1.783 1.935-.285.273 1.781a.765.765 0 0 0 .216.467.514.514 0 0 0 .341.125.618.618 0 0 0 .1-.006.494.494 0 0 0 .387-.239.661.661 0 0 0 .086-.343c0-.051-.006-.108-.011-.165z" class="l-zoho"/><path d="M0 4.399l.131-.66.336-1.679L7.21.978l-.455 2.384z" class="m-zoho"/></svg>